<svg width="256" height="256" viewBox="0 0 256 256" fill="none" xmlns="http://www.w3.org/2000/svg" role="img" aria-labelledby="bearbrickTitle bearbrickDesc">
  <title id="bearbrickTitle">BearBrick Mini-App Icon</title>
  <desc id="bearbrickDesc">Stylised bear character with gradient background representing the BearBrick Farcaster mini-app.</desc>
  <defs>
    <linearGradient id="bgGradient" x1="32" y1="12" x2="224" y2="244" gradientUnits="userSpaceOnUse">
      <stop offset="0%" stop-color="#5AB0FF" />
      <stop offset="55%" stop-color="#7B6BFF" />
      <stop offset="100%" stop-color="#FF7BFB" />
    </linearGradient>
    <linearGradient id="earGradient" x1="0" y1="0" x2="1" y2="1">
      <stop offset="0%" stop-color="#FFE5FF" />
      <stop offset="100%" stop-color="#D4C6FF" />
    </linearGradient>
    <linearGradient id="snoutGradient" x1="0" y1="0" x2="1" y2="1">
      <stop offset="0%" stop-color="#FDF6FF" />
      <stop offset="100%" stop-color="#E5DCFF" />
    </linearGradient>
  </defs>
  <rect x="16" y="16" width="224" height="224" rx="68" fill="url(#bgGradient)" />
  <g filter="url(#shadow)">
    <path d="M82 84c0-18.5 15-33.5 33.5-33.5 13.2 0 24.7 7.7 30.2 19 5.5-11.3 17-19 30.3-19 18.4 0 33.2 15 33.2 33.5s-12.5 31.4-29.2 33.2c12.3 8.7 20.3 22.9 20.3 38.9C200.3 188.6 177.2 212 148 212H108c-29.2 0-52.3-23.4-52.3-51.9 0-16.2 8-30.5 20.5-39.2C94.2 115.5 82 102 82 84Z" fill="#1E163D" opacity="0.78" />
  </g>
  <g>
    <ellipse cx="96" cy="92" rx="24" ry="26" fill="url(#earGradient)" />
    <ellipse cx="160" cy="92" rx="24" ry="26" fill="url(#earGradient)" />
    <ellipse cx="128" cy="148" rx="68" ry="60" fill="#261C4F" />
    <ellipse cx="128" cy="148" rx="62" ry="54" fill="#2D2258" />
    <path d="M128 188c-18.2 0-33-11.6-33-26h66c0 14.4-14.8 26-33 26Z" fill="#1A1339" />
    <ellipse cx="104" cy="130" rx="10" ry="12" fill="#FDF6FF" />
    <ellipse cx="152" cy="130" rx="10" ry="12" fill="#FDF6FF" />
    <circle cx="102" cy="128" r="4" fill="#20163F" />
    <circle cx="150" cy="128" r="4" fill="#20163F" />
    <ellipse cx="128" cy="154" rx="22" ry="18" fill="url(#snoutGradient)" />
    <path d="M128 142c-3.6 0-7.6 2.9-7.6 6.5 0 3.6 4 6.5 7.6 6.5s7.6-2.9 7.6-6.5c0-3.6-4-6.5-7.6-6.5Zm0 11.1a4.7 4.7 0 1 1 0-9.4 4.7 4.7 0 0 1 0 9.4Z" fill="#261C4F" />
    <path d="M119 166c1.7 3.9 5.2 6.5 9.2 6.5 4 0 7.5-2.6 9.2-6.5" stroke="#1A1339" stroke-width="4" stroke-linecap="round" />
  </g>
  <g opacity="0.8">
    <path d="M64 196c12 10 36 18 64 18s52-8 64-18" stroke="rgba(255,255,255,0.35)" stroke-width="4" stroke-linecap="round" />
  </g>
  <defs>
    <filter id="shadow" x="18" y="42" width="220" height="196" filterUnits="userSpaceOnUse" color-interpolation-filters="sRGB">
      <feFlood flood-opacity="0" result="BackgroundImageFix" />
      <feColorMatrix in="SourceAlpha" type="matrix" values="0 0 0 0 0 0 0 0 0 0 0 0 0 0 0 0 0 0 127 0" result="hardAlpha" />
      <feOffset dy="4" />
      <feGaussianBlur stdDeviation="14" />
      <feColorMatrix type="matrix" values="0 0 0 0 0.07 0 0 0 0 0.05 0 0 0 0 0.16 0 0 0 0.3 0" />
      <feBlend mode="normal" in2="BackgroundImageFix" result="effect1_dropShadow" />
      <feBlend mode="normal" in="SourceGraphic" in2="effect1_dropShadow" result="shape" />
    </filter>
  </defs>
</svg>
